<svg width="96" height="96" viewBox="0 0 96 96" fill="none" xmlns="http://www.w3.org/2000/svg">
<path d="M27.6841 41.2725L28.3141 41.6138L27.6879 41.9587L27.3429 42.5962L26.996 41.9644L26.3604 41.6175L26.9904 41.2725L27.3372 40.6406L27.6841 41.2725Z" fill="white"/>
<path d="M69.8023 42.4012L70.7679 42.9262L69.8023 43.4605L69.2773 44.428L68.7485 43.4662L67.7754 42.9374L68.7429 42.4068L69.266 41.4355L69.8023 42.4012Z" fill="white"/>
<path d="M75.0098 47.8089L75.4992 48.0677L75.0154 48.3377L74.7511 48.8214L74.4867 48.3377L74.0029 48.0789L74.4811 47.8089L74.7454 47.3252L75.0098 47.8089Z" fill="white"/>
<path d="M24.5378 21.1275L25.0216 21.3918L24.5378 21.6562L24.2772 22.1456L24.0128 21.6618L23.5234 21.3956L24.0072 21.1312L24.2734 20.6475L24.5378 21.1275Z" fill="white"/>
<path d="M74.0271 36.1405L74.5109 36.3992L74.0271 36.6636L73.7628 37.153L73.4984 36.6692L73.0146 36.4049L73.4984 36.1405L73.7571 35.6567L74.0271 36.1405Z" fill="white"/>
<path d="M22.573 28.2844L23.5405 28.8094L22.5768 29.3381L22.048 30.3113L21.5193 29.3438L20.5518 28.8188L21.5136 28.2844L22.0386 27.3169L22.573 28.2844Z" fill="white"/>
<path d="M22.7456 36.8023L23.3775 37.1435L22.7456 37.4942L22.4044 38.126L22.0575 37.4942L21.4219 37.1529L22.0538 36.8023L22.3987 36.1704L22.7456 36.8023Z" fill="white"/>
<path d="M22.3892 46.0782L23.0248 46.4232L22.3948 46.77L22.0479 47.4057L21.7011 46.7757L21.0654 46.4288L21.6973 46.0838L22.0423 45.4463L22.3892 46.0782Z" fill="white"/>
<path d="M72.5904 21.045L73.2279 21.3918L72.5961 21.7368L72.2511 22.3743L71.9042 21.7425L71.2686 21.3956L71.8986 21.0506L72.2454 20.4131L72.5904 21.045Z" fill="white"/>
<path d="M74.3267 27.943L74.9586 28.2899L74.3267 28.6367L73.9854 29.2667L73.6348 28.6367L73.0029 28.2955L73.6348 27.943L73.9761 27.313L74.3267 27.943Z" fill="white"/>
<path d="M48.1197 57.7519L46.7041 57.7013V51.3525H48.1197V57.7519Z" fill="#F9F9F9"/>
<path d="M49.8188 57.7013L48.3994 57.7519V51.3525H49.8188V57.7013Z" fill="#F9F9F9"/>
<path d="M63.9315 46.2094C61.7734 45.8738 57.9334 45.7407 53.6827 45.7257C53.6677 45.7257 53.6565 45.7257 53.6415 45.7257C52.1846 45.7201 50.679 45.7257 49.1659 45.7463C48.7477 45.7463 48.3409 45.7463 47.919 45.7557C47.4971 45.7557 47.0884 45.7463 46.6721 45.7463C45.1609 45.7257 43.6534 45.7201 42.1965 45.7257C42.1965 45.7257 42.1702 45.7257 42.1552 45.7257C37.9046 45.7407 34.0665 45.8738 31.9065 46.2094C31.9065 46.2094 15.1515 50.4451 16.674 60.5307C16.959 61.3801 17.3771 62.3888 17.9621 63.5494C20.8534 69.2569 28.0215 78.5738 45.7646 89.9869C46.4265 90.4144 47.169 90.6226 47.919 90.6188C48.6671 90.6188 49.4115 90.4144 50.0734 89.9869C67.8146 78.5738 74.9827 69.2569 77.8759 63.5494C78.4609 62.3888 78.879 61.3801 79.164 60.5307C80.6865 50.4451 63.9315 46.2094 63.9315 46.2094Z" fill="white"/>
<path d="M77.1486 61.0555C77.1224 61.1173 77.098 61.183 77.0718 61.2486C76.8168 61.9161 76.4868 62.6736 76.0536 63.5192C73.3349 68.7936 66.5999 77.413 49.9274 87.9767C49.9218 87.9767 49.9218 87.9767 49.918 87.9767C49.4699 88.2617 48.9768 88.4398 48.478 88.5167C48.3805 88.5317 48.2905 88.543 48.193 88.5467C47.7093 88.5823 47.2199 88.5205 46.753 88.363C46.468 88.2711 46.183 88.1436 45.9186 87.9711C29.2461 77.4073 22.5055 68.788 19.7868 63.5136C19.3536 62.668 19.0236 61.9105 18.7743 61.243C18.748 61.1661 18.718 61.0948 18.6936 61.0292C16.7999 51.7123 32.7149 47.5892 32.7149 47.5892C34.7774 47.2686 38.4168 47.1411 42.4649 47.1261C43.8505 47.1261 45.2905 47.1261 46.7268 47.1467C47.128 47.1467 47.5255 47.1467 47.9343 47.1561C48.3355 47.1561 48.7386 47.1467 49.1361 47.1467C50.5724 47.1261 52.018 47.1205 53.398 47.1261C57.4461 47.1411 61.0911 47.2686 63.148 47.5892C63.148 47.5892 79.0986 51.7236 77.1636 61.0555H77.1486Z" fill="url(#paint0_radial_25_2)"/>
<path d="M49.8747 50.6289V88.2414C49.4209 88.532 48.9222 88.7102 48.4141 88.787V50.6308H49.8747V50.6289Z" fill="#16073E"/>
<path d="M48.1237 50.6289V88.817C47.6343 88.8527 47.1356 88.7908 46.6631 88.6333V50.6289H48.1237Z" fill="#16073E"/>
<path d="M49.8747 49.4023V56.3211C49.4059 56.3567 48.9072 56.3773 48.4141 56.383V49.4023H49.8747Z" fill="white"/>
<path d="M48.1237 49.4023V56.383C47.625 56.383 47.1318 56.3567 46.6631 56.3211V49.408H48.1237V49.4023Z" fill="white"/>
<path d="M77.1484 61.0557C77.139 61.1176 77.1222 61.1832 77.1072 61.2488H18.7328C18.7178 61.1776 18.6972 61.1007 18.6878 61.0351C16.794 51.7182 32.709 47.5951 32.709 47.5951C34.7715 47.2744 38.4109 47.1469 42.459 47.1319C43.8447 47.1319 45.2847 47.1319 46.7209 47.1526C47.1222 47.1526 47.5197 47.1526 47.9284 47.1619C48.3315 47.1619 48.7328 47.1526 49.1303 47.1526C50.5665 47.1319 52.0122 47.1263 53.3922 47.1319C57.4403 47.1469 61.0853 47.2744 63.1422 47.5951C63.1422 47.5951 79.0928 51.7294 77.1578 61.0613L77.1484 61.0557Z" fill="#16073E"/>
<path d="M47.8443 59.0552L46.4287 58.9989V51.8252H47.8443V59.0552Z" fill="#F9F9F9"/>
<path d="M49.5453 58.9989L48.124 59.0552V51.8252H49.5453V58.9989Z" fill="#F9F9F9"/>
<path d="M21.4065 65.368C21.3409 65.2818 21.2696 65.1993 21.2021 65.1187Z" fill="#16073E"/>
<path d="M38.6963 34.5562V28.3706L42.5138 33.8231L38.6963 34.5562Z" stroke="white" stroke-width="0.1" stroke-miterlimit="10"/>
<path d="M81.6135 56.9979V18.0617C81.6135 14.8704 79.0073 12.2792 75.7841 12.2679L46.7291 12.1704L19.8998 12.2679C16.6766 12.2773 14.0704 14.8685 14.0704 18.0617V57.0035C14.0704 57.0035 13.8116 70.3779 44.6985 89.846C46.6129 91.0535 49.0673 91.0535 50.9816 89.846C81.8685 70.3779 81.6098 57.0035 81.6098 57.0035L81.6135 56.9979ZM49.7798 85.1304C48.5929 85.8785 47.0966 85.8785 45.9098 85.1304C18.7541 67.9685 18.9829 56.1429 18.9829 56.1429V21.1929C18.9829 19.0498 20.6423 17.3192 22.6898 17.3135L46.8923 17.2217L72.9998 17.3135C75.051 17.3229 76.7104 19.0554 76.7104 21.1929V56.1373C76.7104 56.1373 76.9335 67.9629 49.7798 85.1248V85.1304Z" fill="url(#paint1_linear_25_2)"/>
<path d="M69.1762 21.7218V6.4743C69.1762 5.92492 68.7337 5.48242 68.1843 5.48242C67.635 5.48242 67.1925 5.92492 67.1925 6.4743V18.4424C64.0312 10.363 56.67 5.1543 48.0862 5.1543C38.5462 5.1543 30.5175 11.5893 28.0893 21.2512H28.08C26.8481 21.2512 25.8506 22.2337 25.8506 23.4412V31.6837C25.8506 32.8949 26.8481 33.8737 28.08 33.8737H28.1775C28.905 36.4799 30.0806 38.7562 31.6087 40.6855C31.6087 40.813 31.6181 40.9405 31.6237 41.068H31.5881C31.5881 46.4699 31.5881 53.0212 48.0881 53.0212C64.5881 53.0212 64.5881 46.4699 64.5881 41.068C64.5937 40.9349 64.5731 40.8093 64.5731 40.6762C66.0487 38.8124 67.2 36.6243 67.9275 34.1287C67.9931 34.1343 68.055 34.1493 68.1206 34.1493H68.2687C69.5006 34.1493 70.4981 33.1668 70.4981 31.9593V23.7187C70.4943 22.8262 69.9487 22.063 69.1762 21.7218Z" fill="white"/>
<path d="M63.3772 40.2637C63.3772 45.2737 63.606 51.3524 48.0735 51.3524C32.541 51.3524 32.7697 45.2737 32.7697 40.2637" fill="url(#paint2_radial_25_2)"/>
<path d="M63.3772 38.2632C63.3772 43.2732 63.606 49.3519 48.0735 49.3519C32.541 49.3519 32.7697 43.2732 32.7697 38.2632" fill="url(#paint3_linear_25_2)"/>
<path d="M67.3574 27.6487C67.3574 39.7237 58.7324 46.7494 48.103 46.7494C37.4736 46.7494 28.8486 39.7237 28.8486 27.6487C28.8486 15.5737 36.7949 7.6406 46.8411 6.98998C47.2593 6.96373 47.6811 6.94873 48.103 6.94873H48.3018C48.3993 6.94873 48.4949 6.95436 48.5924 6.95436C49.0818 6.96936 49.5693 6.99936 50.053 7.05186C59.7674 8.02686 67.3574 16.3162 67.3574 27.6487Z" fill="url(#paint4_radial_25_2)"/>
<path d="M48.3693 46.7493C59.5855 46.7493 67.0068 40.2787 67.0068 29.7149C67.0068 19.1512 59.3999 23.5799 48.1855 23.5799C36.9712 23.5799 29.2012 18.5099 29.2012 29.0737C29.2012 39.6374 37.153 46.7493 48.3693 46.7493Z" fill="#16073E"/>
<path d="M48.3334 44.1843C57.9296 44.1843 64.2784 39.1387 64.2784 30.9075C64.2784 22.6762 57.7721 26.1225 48.1759 26.1225C38.5796 26.1225 31.9365 22.1718 31.9365 30.4031C31.9365 38.6343 38.7353 44.1843 48.3334 44.1843Z" fill="url(#paint5_linear_25_2)"/>
<path d="M48.0734 6.94873H48.2722V24.7312H46.8115V6.98811L48.0734 6.94873Z" fill="#16073E"/>
<path d="M50.0231 7.05014V24.7314H48.5625V6.95264C49.05 6.96951 49.5394 6.99951 50.0231 7.05014Z" fill="#16073E"/>
<path d="M37.9428 58.4888H58.1946C59.1734 58.4888 59.9665 59.2819 59.9665 60.2606V71.5163C59.9665 72.495 59.1734 73.2881 58.1946 73.2881H37.9428C36.964 73.2881 36.1709 72.495 36.1709 71.5163V60.2606C36.1709 59.2819 36.964 58.4888 37.9428 58.4888Z" fill="url(#paint6_radial_25_2)"/>
<path d="M42.3261 64.9594C43.3492 64.9594 44.1786 64.13 44.1786 63.1069C44.1786 62.0838 43.3492 61.2544 42.3261 61.2544C41.303 61.2544 40.4736 62.0838 40.4736 63.1069C40.4736 64.13 41.303 64.9594 42.3261 64.9594Z" fill="#16073E"/>
<path d="M43.206 61.4626L43.2154 61.4533C43.2154 61.4533 43.1798 61.427 43.1085 61.382C43.0316 61.3201 42.9566 61.2695 42.8685 61.2245C40.4404 59.5801 25.9673 50.972 32.9966 44.0626L32.7979 39.9995C32.7979 39.9995 17.2298 48.4201 40.8266 64.4214L40.836 64.412C41.1473 64.6351 41.5279 64.7683 41.9404 64.7683C42.9885 64.7683 43.8398 63.9189 43.8398 62.8689C43.8398 62.3083 43.596 61.8151 43.2079 61.4645H43.206V61.4626Z" fill="url(#paint7_radial_25_2)"/>
<path d="M51.7032 61.438H49.8545V70.5711H51.7032V61.438Z" fill="#16073E"/>
<path d="M54.4425 61.438H52.5938V70.5711H54.4425V61.438Z" fill="#16073E"/>
<path d="M57.2628 61.438H55.4141V70.5711H57.2628V61.438Z" fill="#16073E"/>
<defs>
<radialGradient id="paint0_radial_25_2" cx="0" cy="0" r="1" gradientUnits="userSpaceOnUse" gradientTransform="translate(47.9235 67.8405) scale(25.4269 25.4269)">
<stop stop-color="white"/>
<stop offset="0.39" stop-color="#EDEDED"/>
<stop offset="1" stop-color="#CCCCCC"/>
</radialGradient>
<linearGradient id="paint1_linear_25_2" x1="47.842" y1="12.1714" x2="47.842" y2="90.7498" gradientUnits="userSpaceOnUse">
<stop stop-color="#6022DC"/>
<stop offset="1" stop-color="#DC22D1"/>
</linearGradient>
<radialGradient id="paint2_radial_25_2" cx="0" cy="0" r="1" gradientUnits="userSpaceOnUse" gradientTransform="translate(48.0736 45.8078) scale(11.5096)">
<stop stop-color="white"/>
<stop offset="0.15" stop-color="#F9F9F9"/>
<stop offset="0.34" stop-color="#E8E8E8"/>
<stop offset="0.56" stop-color="#CCCCCC"/>
<stop offset="0.8" stop-color="#A5A5A5"/>
<stop offset="1" stop-color="#808080"/>
</radialGradient>
<linearGradient id="paint3_linear_25_2" x1="48.0736" y1="38.2631" x2="48.0736" y2="49.3513" gradientUnits="userSpaceOnUse">
<stop stop-color="#1F1F1F"/>
<stop offset="0.09" stop-color="#282828"/>
<stop offset="0.25" stop-color="#424242"/>
<stop offset="0.45" stop-color="#6C6C6C"/>
<stop offset="0.69" stop-color="#A7A7A7"/>
<stop offset="0.95" stop-color="#F0F0F0"/>
<stop offset="1" stop-color="white"/>
</linearGradient>
<radialGradient id="paint4_radial_25_2" cx="0" cy="0" r="1" gradientUnits="userSpaceOnUse" gradientTransform="translate(48.1037 26.849) scale(19.5801 19.5801)">
<stop stop-color="white"/>
<stop offset="0.42" stop-color="#FDFDFD"/>
<stop offset="0.57" stop-color="#F6F6F6"/>
<stop offset="0.68" stop-color="#EAEAEA"/>
<stop offset="0.77" stop-color="#D9D9D9"/>
<stop offset="0.84" stop-color="#C3C3C3"/>
<stop offset="0.91" stop-color="#A8A8A8"/>
<stop offset="0.97" stop-color="#888888"/>
<stop offset="1" stop-color="#737373"/>
</radialGradient>
<linearGradient id="paint5_linear_25_2" x1="31.9345" y1="34.6786" x2="64.2776" y2="34.6786" gradientUnits="userSpaceOnUse">
<stop stop-color="#6022DC"/>
<stop offset="1" stop-color="#DC22D1"/>
</linearGradient>
<radialGradient id="paint6_radial_25_2" cx="0" cy="0" r="1" gradientUnits="userSpaceOnUse" gradientTransform="translate(46.423 65.255) scale(9.14181 12.9686)">
<stop stop-color="white"/>
<stop offset="0.36" stop-color="#EDEEEE"/>
<stop offset="0.89" stop-color="#CED0D1"/>
<stop offset="1" stop-color="#CCCCCC"/>
</radialGradient>
<radialGradient id="paint7_radial_25_2" cx="0" cy="0" r="1" gradientUnits="userSpaceOnUse" gradientTransform="translate(35.8027 52.3831) scale(10.4405)">
<stop stop-color="white"/>
<stop offset="0.39" stop-color="#EDEDED"/>
<stop offset="1" stop-color="#CCCCCC"/>
</radialGradient>
</defs>
</svg>
